#!OML:ASF X:\für Bonn\!DataBase\2005_08_11_Bastian_Final\c3d\Bastian.ASF
:FULLY-SPECIFIED
:DEGREES
181
root -0.780717 18.2113 -0.590089 167.581 -60.9625 -177.681
lowerback 6.51937 -5.71737 0.74904
upperback -0.355699 -7.53456 3.23323
thorax -3.66091 -3.76927 3.6349
lowerneck 2.99218 -15.7514 -9.34818
upperneck -5.49913 -21.2511 13.3704
head 0.327672 -10.7993 5.08161
rclavicle -3.97569e-014 9.85972e-014
rhumerus 54.9086 -10.9582 7.87174
rradius 31.6564
rwrist -268.193
rhand 16.7084 -17.1084
rfingers 7.12502
rthumb 41.4572 -401.878
lclavicle -3.97569e-014 9.85972e-014
lhumerus 448.525 -7.36949 -306.188
lradius 38.1071
lwrist -136.007
lhand -18.1776 16.2616
lfingers 7.12502
lthumb 8.09892 46.0864
rfemur 2.24088 3.94131 23.4322
rtibia 33.3935
rfoot -14.8022 -22.2171
rtoes 9.00883
lfemur 6.87383 12.7186 -4.30533
ltibia 35.1423
lfoot 5.8104 3.3632
ltoes -40.3161
182
root -0.759943 18.1945 -0.587209 167.331 -60.9863 -177.469
lowerback 6.61475 -5.70509 0.857657
upperback -0.313081 -7.50986 3.2479
thorax -3.68307 -3.75954 3.59721
lowerneck 3.17024 -15.7678 -9.27512
upperneck -5.6184 -21.2719 13.3345
head 0.254991 -10.8168 5.08497
rclavicle 1.40541e-013 1.11319e-014
rhumerus 55.0011 -11.3227 6.04466
rradius 32.0446
rwrist -266.551
rhand 16.1892 -17.0371
rfingers 7.12502
rthumb 40.9698 -401.963
lclavicle 1.40541e-013 1.11319e-014
lhumerus 448.465 -7.50906 -306.407
lradius 38.5188
lwrist -136.27
lhand -18.06 16.8192
lfingers 7.12502
lthumb 8.21241 46.6396
rfemur 2.24076 3.65244 23.5547
rtibia 33.4258
rfoot -14.9531 -22.1362
rtoes 8.72294
lfemur 6.78032 12.6407 -4.16154
ltibia 35.3339
lfoot 5.58831 3.27139
ltoes -40.036
183
root -0.739251 18.1784 -0.584164 167.164 -61.0253 -177.336
lowerback 6.70869 -5.69595 0.920853
upperback -0.28267 -7.49191 3.25096
thorax -3.71246 -3.75186 3.57346
lowerneck 3.34841 -15.7881 -9.18888
upperneck -5.73138 -21.2973 13.2761
head 0.180609 -10.8358 5.08033
rclavicle -9.91935e-014 -1.43125e-014
rhumerus 55.0874 -11.6907 4.11225
rradius 32.5099
rwrist -264.902
rhand 15.6253 -16.9719
rfingers 7.12502
rthumb 40.4399 -402.064
lclavicle -9.91935e-014 -1.43125e-014
lhumerus 448.376 -7.65072 -306.696
lradius 39.0068
lwrist -136.481
lhand -17.8326 17.2734
lfingers 7.12502
lthumb 8.43192 47.085
rfemur 2.22762 3.393 23.6336
rtibia 33.4676
rfoot -15.1892 -22.0477
rtoes 8.62914
lfemur 6.66937 12.5823 -4.07893
ltibia 35.5321
lfoot 5.35078 3.19951
ltoes -39.9319
184
root -0.718513 18.16 -0.579494 166.891 -61.0529 -177.082
lowerback 6.77711 -5.69375 1.05542
upperback -0.226295 -7.47979 3.259
thorax -3.70869 -3.7494 3.51168
lowerneck 3.49871 -15.7968 -9.07485
upperneck -5.88291 -21.3019 13.2511
head 0.098051 -10.8461 5.08249
rclavicle 6.91771e-014 -3.33958e-014
rhumerus 55.0998 -12.0708 2.19695
rradius 33.1061
rwrist -263.302
rhand 15.0539 -16.8875
rfingers 7.12502
rthumb 39.9024 -402.143
lclavicle 6.91771e-014 -3.33958e-014
lhumerus 448.272 -7.78328 -306.997
lradius 39.5675
lwrist -136.7
lhand -17.6049 17.6988
lfingers 7.12502
lthumb 8.6516 47.5015
rfemur 2.18855 3.0143 23.7307
rtibia 33.5223
rfoot -15.3124 -21.8655
rtoes 8.31031
lfemur 6.55272 12.5616 -3.92308
ltibia 35.7418
lfoot 5.10527 3.11959
ltoes -39.7361
185
root -0.697091 18.1403 -0.575214 166.595 -61.0854 -176.839
lowerback 6.87991 -5.69244 1.15915
upperback -0.160228 -7.47063 3.26763
thorax -3.70982 -3.74784 3.47077
lowerneck 3.63475 -15.8042 -9.00674
upperneck -5.99629 -21.3087 13.2441
head 0.0360597 -10.8561 5.09119
rclavicle 9.72057e-014 2.8625e-014
rhumerus 55.0475 -12.4186 0.346416
rradius 33.8308
rwrist -261.806
rhand 14.4542 -16.7999
rfingers 7.12502
rthumb 39.3376 -402.222
lclavicle 9.72057e-014 2.8625e-014
lhumerus 448.127 -7.93826 -307.239
lradius 40.1827
lwrist -136.87
lhand -17.381 18.037
lfingers 7.12502
lthumb 8.8677 47.8306
rfemur 2.18931 2.72602 23.8577
rtibia 33.5852
rfoot -15.5136 -21.7608
rtoes 8.14855
lfemur 6.46621 12.5355 -3.77383
ltibia 35.9629
lfoot 4.83321 3.06
ltoes -39.6647
186
root -0.675858 18.1211 -0.569675 166.301 -61.1246 -176.567
lowerback 6.95934 -5.70626 1.28422
upperback -0.102212 -7.48033 3.27894
thorax -3.70775 -3.75606 3.4207
lowerneck 3.7252 -15.8164 -8.89977
upperneck -6.08885 -21.3182 13.2026
head -0.0204087 -10.8656 5.08083
rclavicle -3.69739e-014 1.74931e-014
rhumerus 54.908 -12.7154 -1.42622
rradius 34.7386
rwrist -260.431
rhand 13.8813 -16.7004
rfingers 7.12502
rthumb 38.7976 -402.278
lclavicle -3.69739e-014 1.74931e-014
lhumerus 447.909 -8.1071 -307.434
lradius 40.8571
lwrist -137.118
lhand -17.1655 18.331
lfingers 7.12502
lthumb 9.07563 48.1158
rfemur 2.15455 2.45429 23.9952
rtibia 33.6474
rfoot -15.68 -21.6767
rtoes 7.94374
lfemur 6.33435 12.5298 -3.62721
ltibia 36.2097
lfoot 4.56623 2.97167
ltoes -39.7471
187
root -0.653988 18.1013 -0.562637 165.957 -61.143 -176.262
lowerback 7.05123 -5.704 1.43861
upperback -0.0209997 -7.46681 3.27662
thorax -3.69504 -3.75349 3.3383
lowerneck 3.83616 -15.8298 -8.7877
upperneck -6.24065 -21.3273 13.2161
head -0.0917533 -10.8785 5.08978
rclavicle -5.94366e-014 3.18055e-014
rhumerus 54.6414 -12.9686 -3.03921
rradius 35.7472
rwrist -259.225
rhand 13.3137 -16.6746
rfingers 7.12502
rthumb 38.2621 -402.402
lclavicle -5.94366e-014 3.18055e-014
lhumerus 447.672 -8.36395 -307.452
lradius 41.5647
lwrist -137.499
lhand -17.0209 18.6339
lfingers 7.12502
lthumb 9.2152 48.4126
rfemur 2.13355 2.12946 24.1311
rtibia 33.7042
rfoot -15.8054 -21.5253
rtoes 7.75492
lfemur 6.21965 12.5214 -3.4598
ltibia 36.4754
lfoot 4.25255 2.93124
ltoes -39.7155
188
root -0.632018 18.0816 -0.555586 165.527 -61.16 -175.895
lowerback 7.1586 -5.70749 1.60928
upperback 0.0808089 -7.46029 3.27227
thorax -3.67149 -3.75503 3.24595
lowerneck 3.89998 -15.854 -8.59993
upperneck -6.36642 -21.3459 13.1834
head -0.160323 -10.8948 5.07152
rclavicle 1.97791e-014 3.49861e-014
rhumerus 54.2568 -13.1735 -4.5288
rradius 36.9216
rwrist -258.14
rhand 12.7853 -16.6099
rfingers 7.12502
rthumb 37.763 -402.473
lclavicle 1.97791e-014 3.49861e-014
lhumerus 447.409 -8.6176 -307.469
lradius 42.2746
lwrist -137.827
lhand -16.9798 19.0071
lfingers 7.12502
lthumb 9.25484 48.784
rfemur 2.16199 1.87999 24.3221
rtibia 33.7445
rfoot -15.9378 -21.439
rtoes 7.46827
lfemur 6.11913 12.534 -3.24545
ltibia 36.7722
lfoot 3.95468 2.87219
ltoes -39.8335
189
root -0.60962 18.0613 -0.548124 165.094 -61.1677 -175.501
lowerback 7.24927 -5.70977 1.77073
upperback 0.17047 -7.45296 3.2883
thorax -3.64731 -3.75603 3.17838
lowerneck 4.01356 -15.8652 -8.49369
upperneck -6.53283 -21.3511 13.2133
head -0.234341 -10.9066 5.08697
rclavicle 8.84592e-015 -1.59028e-014
rhumerus 53.8011 -13.3429 -6.02313
rradius 38.2351
rwrist -257.027
rhand 12.2152 -16.5467
rfingers 7.12502
rthumb 37.2242 -402.553
lclavicle 8.84592e-015 -1.59028e-014
lhumerus 447.106 -8.88886 -307.443
lradius 42.9963
lwrist -138.106
lhand -17.0011 19.4138
lfingers 7.12502
lthumb 9.23424 49.1916
rfemur 2.17024 1.7206 24.5547
rtibia 33.7722
rfoot -16.1606 -21.434
rtoes 7.52394
lfemur 5.9815 12.5274 -3.03168
ltibia 37.0887
lfoot 3.64863 2.84345
ltoes -39.9103
190
root -0.586684 18.0413 -0.53934 164.63 -61.1582 -175.089
lowerback 7.36495 -5.71289 1.91449
upperback 0.267696 -7.44789 3.31936
thorax -3.62476 -3.7581 3.13842
lowerneck 4.10366 -15.8736 -8.31157
upperneck -6.70944 -21.3451 13.1739
head -0.324857 -10.9117 5.07465
rclavicle -1.41833e-013 3.65764e-014
rhumerus 53.2304 -13.4482 -7.38483
rradius 39.7237
rwrist -256.059
rhand 11.6728 -16.5261
rfingers 7.12502
rthumb 36.7112 -402.665
lclavicle -1.41833e-013 3.65764e-014
lhumerus 446.768 -9.12739 -307.4
lradius 43.7556
lwrist -138.352
lhand -17.0273 19.8558
lfingers 7.12502
lthumb 9.20897 49.6347
rfemur 2.18775 1.53825 24.7772
rtibia 33.7905
rfoot -16.3612 -21.3778
rtoes 7.56008
lfemur 5.84571 12.5609 -2.79218
ltibia 37.4263
lfoot 3.35474 2.78325
ltoes -40.1344
191
root -0.563153 18.0205 -0.530277 164.15 -61.155 -174.663
lowerback 7.46474 -5.70947 2.06404
upperback 0.375485 -7.43466 3.33957
thorax -3.58475 -3.75628 3.08066
lowerneck 4.24819 -15.8809 -8.18029
upperneck -6.92516 -21.3422 13.2443
head -0.41706 -10.9236 5.10436
rclavicle -8.34896e-014 3.49861e-014
rhumerus 52.5118 -13.5717 -8.85647
rradius 41.3927
rwrist -255.015
rhand 11.0742 -16.4465
rfingers 7.12502
rthumb 36.1445 -402.727
lclavicle -8.34896e-014 3.49861e-014
lhumerus 446.423 -9.42509 -307.255
lradius 44.5344
lwrist -138.649
lhand -17.1846 20.3284
lfingers 7.12502
lthumb 9.05717 50.1139
rfemur 2.21504 1.46133 25.0399
rtibia 33.801
rfoot -16.6184 -21.402
rtoes 7.82631
lfemur 5.69454 12.5437 -2.55952
ltibia 37.7743
lfoot 3.04712 2.78453
ltoes -40.1702
192
root -0.539005 17.999 -0.520277 163.595 -61.1403 -174.162
lowerback 7.58059 -5.70742 2.24744
upperback 0.478381 -7.41971 3.36209
thorax -3.56264 -3.75396 3.00912
lowerneck 4.42782 -15.8879 -8.0059
upperneck -7.17831 -21.3352 13.2879
head -0.533926 -10.9352 5.12797
rclavicle -1.03368e-014 1.08139e-013
rhumerus 51.6313 -13.5813 -10.1645
rradius 43.2136
rwrist -254.14
rhand 10.4978 -16.4651
rfingers 7.12502
rthumb 35.5984 -402.879
lclavicle -1.03368e-014 1.08139e-013
lhumerus 446.048 -9.75525 -307.123
lradius 45.3441
lwrist -138.805
lhand -17.4051 20.8067
lfingers 7.12502
lthumb 8.8444 50.6014
rfemur 2.24371 1.31981 25.3223
rtibia 33.8051
rfoot -16.8504 -21.3975
rtoes 7.95756
lfemur 5.54002 12.5254 -2.28831
ltibia 38.1415
lfoot 2.75127 2.80995
ltoes -40.2586
193
root -0.514917 17.9784 -0.510423 163.046 -61.104 -173.675
lowerback 7.70226 -5.68758 2.41392
upperback 0.582096 -7.38213 3.39015
thorax -3.54053 -3.74011 2.95062
lowerneck 4.57528 -15.9113 -7.84945
upperneck -7.39092 -21.3518 13.3367
head -0.62894 -10.957 5.14847
rclavicle 4.07509e-015 -1.59028e-014
rhumerus 50.5685 -13.539 -11.3265
rradius 45.2114
rwrist -253.386
rhand 9.92911 -16.5587
rfingers 7.12502
rthumb 35.0591 -403.101
lclavicle 4.07509e-015 -1.59028e-014
lhumerus 445.616 -10.1259 -306.93
lradius 46.2325
lwrist -138.916
lhand -17.666 21.2381
lfingers 7.12502
lthumb 8.59266 51.0433
rfemur 2.28208 1.23812 25.6186
rtibia 33.8042
rfoot -17.0803 -21.4197
rtoes 8.19841
lfemur 5.38339 12.5029 -2.0213
ltibia 38.52
lfoot 2.45157 2.84164
ltoes -40.3396
194
root -0.489453 17.9576 -0.498488 162.477 -61.0755 -173.16
lowerback 7.82692 -5.67112 2.6111
upperback 0.690297 -7.34634 3.40076
thorax -3.52124 -3.72732 2.85775
lowerneck 4.7519 -15.9336 -7.64535
upperneck -7.65966 -21.362 13.4147
head -0.747444 -10.9802 5.17795
rclavicle 1.21358e-013 5.56597e-015
rhumerus 49.3602 -13.4329 -12.3696
rradius 47.3961
rwrist -252.728
rhand 9.41713 -16.6443
rfingers 7.12502
rthumb 34.5733 -403.299
lclavicle 1.21358e-013 5.56597e-015
lhumerus 445.183 -10.5329 -306.793
lradius 47.1644
lwrist -138.966
lhand -17.9208 21.6399
lfingers 7.12502
lthumb 8.34675 51.455
rfemur 2.30607 1.10276 25.9089
rtibia 33.8014
rfoot -17.2984 -21.4176
rtoes 8.51669
lfemur 5.19738 12.4876 -1.74638
ltibia 38.9187
lfoot 2.15826 2.88755
ltoes -40.5012
195
root -0.464619 17.9358 -0.486396 161.921 -61.0284 -172.679
lowerback 7.94376 -5.65574 2.76291
upperback 0.815779 -7.31772 3.43288
thorax -3.47065 -3.7181 2.80988
lowerneck 4.90175 -15.9407 -7.49768
upperneck -7.92288 -21.3524 13.5124
head -0.853922 -10.9924 5.21742
rclavicle -1.145e-013 -4.29375e-014
rhumerus 48.0457 -13.2238 -13.1893
rradius 49.7326
rwrist -252.308
rhand 8.99721 -16.8719
rfingers 7.12502
rthumb 34.1746 -403.617
lclavicle -1.145e-013 -4.29375e-014
lhumerus 444.683 -10.9097 -306.69
lradius 48.1893
lwrist -138.891
lhand -18.1438 21.9191
lfingers 7.12502
lthumb 8.13158 51.7426
rfemur 2.3484 0.923861 26.1704
rtibia 33.7912
rfoot -17.4739 -21.3727
rtoes 8.70597
lfemur 5.02911 12.4457 -1.5025
ltibia 39.3351
lfoot 1.84715 2.97523
ltoes -40.6268
